<svg width="534" height="785" viewBox="0 0 534 785" fill="none" xmlns="http://www.w3.org/2000/svg">
<g clip-path="url(#clip0)">
<g clip-path="url(#clip1)">
<path d="M533.5 398.4C533.5 379.9 532 361.3 528.8 343.1H272.1V447.9H419.1C413 481.7 393.4 511.6 364.7 530.6V598.6H452.4C503.9 551.2 533.5 481.2 533.5 398.4Z" fill="#4285F4"/>
<path d="M272.1 664.3C345.5 664.3 407.4 640.2 452.5 598.6L364.8 530.6C340.4 547.2 308.9 556.6 272.2 556.6C201.2 556.6 141 508.7 119.4 444.3H28.9V514.4C75.1 606.3 169.2 664.3 272.1 664.3V664.3Z" fill="#34A853"/>
<path d="M119.3 444.3C107.9 410.5 107.9 373.9 119.3 340.1V270H28.9C-9.70005 346.9 -9.70005 437.5 28.9 514.4L119.3 444.3V444.3Z" fill="#FBBC04"/>
<path d="M272.1 227.7C310.9 227.1 348.4 241.7 376.5 268.5L454.2 190.8C405 144.6 339.7 119.2 272.1 120C169.2 120 75.1 178 28.9 270L119.3 340.1C140.8 275.6 201.1 227.7 272.1 227.7V227.7Z" fill="#EA4335"/>
</g>
</g>
<defs>
<clipPath id="clip0">
<rect width="533.5" height="784.3" fill="white"/>
</clipPath>
<clipPath id="clip1">
<rect width="533.5" height="544.3" fill="white" transform="translate(0 120)"/>
</clipPath>
</defs>
</svg>
